# xmcd CD database file
#
# Track frame offsets:
#	150
#	19005
#	33392
#	45857
#	65192
#	80270
#	104044
#	115021
#	138541
#	162225
#	178482
#	190769
#	209960
#
# Disc length: 3093 seconds
#
# Revision: 0
# Processed by: cddbd v1.5.2PL0 Copyright (c) Steve Scherf et al.
# Submitted via: CDex 1.70beta2
#
DISCID=bd0c130d
DTITLE=Gregor Hübner - New York Lounge
DYEAR=2008
DGENRE=Jazz
TTITLE0=Guajira Nueva
TTITLE1=Footprints
TTITLE2=Dos Hermanas
TTITLE3=Blue In Green
TTITLE4=Interlude And Tango
TTITLE5=Do You Know What You Need?
TTITLE6=Dos Hermanas II
TTITLE7=Gitano Yambo Lounge
TTITLE8=Second Song
TTITLE9=Austrian Shuffle
TTITLE10=Dos Hermanas III
TTITLE11=Blue Fire
TTITLE12=The Gypsy
EXTD=YEAR: 2008
EXTT0=
EXTT1=
EXTT2=
EXTT3=
EXTT4=
EXTT5=
EXTT6=
EXTT7=
EXTT8=
EXTT9=
EXTT10=
EXTT11=
EXTT12=
PLAYORDER=
